<svg xmlns="http://www.w3.org/2000/svg" viewBox="0 0 512 512"><rect width="512" height="512" rx="110" fill="#090b10"/><circle cx="365" cy="146" r="82" fill="#f47721"/><path d="M300 146h130M365 64c-28 27-42 54-42 82s14 55 42 82M365 64c28 27 42 54 42 82s-14 55-42 82" fill="none" stroke="#090b10" stroke-width="12"/><path d="M75 335l76-183h72c53 0 82 21 82 58 0 27-16 47-47 58 31 8 47 25 47 51 0 51-42 77-126 77H75zm83-111h42c22 0 33-7 33-22 0-13-10-19-29-19h-29l-17 41zm-43 103h61c30 0 45-9 45-27 0-15-12-22-37-22h-49l-20 49z" fill="#f7f5f1"/><path d="M248 396l69-166h55l-47 114h112l-21 52H248z" fill="#f47721"/></svg>